<svg version="1.2" xmlns="http://www.w3.org/2000/svg" viewBox="0 0 1008 822" width="1008" height="822"><defs><linearGradient id="P" gradientUnits="userSpaceOnUse"/><linearGradient id="g1" x1="690.9" y1="523.2" x2="721.1" y2="553.4" href="#P"><stop stop-opacity=".1"/><stop offset="1" stop-opacity="0"/></linearGradient><radialGradient id="g2" cx="399.2" cy="756.9" r="85.4" href="#P"><stop offset=".5" stop-opacity=".1"/><stop offset="1" stop-opacity="0"/></radialGradient><radialGradient id="g3" cx="922.6" cy="228.7" r="85.4" href="#P"><stop offset=".5" stop-opacity=".1"/><stop offset="1" stop-opacity="0"/></radialGradient><linearGradient id="g4" x1="210.2" y1="626.2" x2="180" y2="656.4" href="#P"><stop stop-opacity=".1"/><stop offset="1" stop-opacity="0"/></linearGradient><radialGradient id="g5" cx="80.8" cy="435.4" r="85.4" href="#P"><stop offset=".5" stop-opacity=".1"/><stop offset="1" stop-opacity="0"/></radialGradient><linearGradient id="g6" x1="569.2" y1="800" x2="24.6" y2="216" href="#P"><stop stop-color="#9d00f7"/><stop offset="0" stop-color="#9d00f7"/><stop offset="1" stop-color="#ae4ce6"/><stop offset="1" stop-color="#ae4ce6"/></linearGradient><linearGradient id="g7" x1="880.7" y1="9.5" x2="327.1" y2="800" href="#P"><stop stop-color="#9000ff"/><stop offset="0" stop-color="#9000ff"/><stop offset="1" stop-color="#e576fd"/><stop offset="1" stop-color="#e576fd"/></linearGradient></defs><style>.a{fill:url(#g1)}.b{fill:url(#g2)}.c{fill:url(#g3)}.d{fill:url(#g4)}.e{fill:url(#g5)}.f{fill:url(#g6)}.g{fill:url(#g7)}</style><path class="a" d="m952.8 259.1l30.2 30.5-523.4 528.3-30.2-30.5z"/><path class="b" d="m399.2 843.1c-47.2 0-85.4-38.5-85.4-86.2 0-47.7 38.2-86.2 85.4-86.2 47.3 0 85.5 38.5 85.5 86.2 0 47.7-38.2 86.2-85.5 86.2z"/><path class="c" d="m922.6 314.9c-47.3 0-85.4-38.6-85.4-86.2 0-47.7 38.1-86.3 85.4-86.3 47.2 0 85.4 38.6 85.4 86.3 0 47.6-38.2 86.2-85.4 86.2z"/><path class="d" d="m369 787.4l-30.2 30.5-318.6-321.7 30.2-30.5z"/><path class="e" d="m80.6 521.4c-47.3 0-85.5-38.5-85.5-86.2 0-47.7 38.2-86.2 85.5-86.2 47.2 0 85.4 38.5 85.4 86.2 0 47.7-38.2 86.2-85.4 86.2z"/><path class="f" d="m20.2 435.2c-16.7-16.8-16.7-44.1 0-60.9l144.2-145.6c16.7-16.9 43.7-16.9 60.4 0l348.9 352.1c16.7 16.9 16.7 44.1 0 61l-144.3 145.6c-16.6 16.8-43.7 16.8-60.4 0z"/><path class="g" d="m778.3 22.1c16.7-16.8 43.8-16.8 60.4 0l144.3 145.6c16.7 16.8 16.7 44.1 0 61l-553.6 558.7c-16.6 16.8-43.7 16.8-60.4 0l-144.2-145.6c-16.7-16.9-16.7-44.1 0-61z"/></svg>